# xmcd CD database file
#
# Track frame offsets:
#	150
#	16600
#	30463
#	43313
#	55958
#	69908
#	82013
#	97605
#	112898
#	125713
#
# Disc length: 1870 seconds
#
# Revision: 3
# Processed by: cddbd v1.4PL0 Copyright (c) Steve Scherf et al.
# Submitted via: CDex 1.50Beta6
#
DISCID=74074c0a
DTITLE=Mark Chesnutt - Too Cold at Home
DYEAR=1990
DGENRE=Country
TTITLE0=Too Cold At Home
TTITLE1=Brother Jukebox
TTITLE2=Blame It On Texas
TTITLE3=Your Love Is A Miracle
TTITLE4=Broken Promise Land
TTITLE5=Too Good A Memory
TTITLE6=Friends In Low Places
TTITLE7=Lucky Man
TTITLE8=Hey You There In The Mirror
TTITLE9=Danger At My Door
EXTD=YEAR: 1990
EXTT0=
EXTT1=
EXTT2=
EXTT3=
EXTT4=
EXTT5=
EXTT6=
EXTT7=
EXTT8=
EXTT9=
PLAYORDER=
